<svg xmlns="http://www.w3.org/2000/svg" width="69.123" height="73.013" viewBox="0 0 69.123 73.013"><defs><style>.a{fill:#fa8200;}</style></defs><g transform="translate(22195.885 16013)"><path class="a" d="M62.235-156.968c0,.2.385-.147.556-.573,1.53-3.742,1.809-7.886-.49-10.351-5.777-6.2-17.162-7.518-21.3-9.219-4.578-1.882-9.414-4.357-10.781-9.627A15.059,15.059,0,0,1,31.7-197.512c.413-.762,0-.609-.319-.3a14.323,14.323,0,0,0-3.976,7.944,16.8,16.8,0,0,0,.192,8.757c1.5,4.619,7.218,7.339,10.583,8.661,2.991,1.237,5.194,1.047,14.636,4.368s9.508,9.27,9.429,10.334C62.241-157.749,62.243-157.489,62.235-156.968Zm-2.488-21.289-.009.011c-2.014-.851-4.176-1.541-6.324-2.218-6.86-2.171-15.785-4.159-18.265-12.069-.613-1.952-1.064-4.385-.045-6.254.866-1.586,2.678.119,3.516.732,3.257,2.38,7.218,4.091,11.322,3.778,3.578-.27,8.735-2.3,9.6-6.251a5.827,5.827,0,0,0-1.622-5.7c-.681-.7-.977-.6-.366.181a4.641,4.641,0,0,1,1.066,4.127c-.688,2.607-4.727,3.2-6.937,3.2-5.143,0-9.236-6.43-14.444-3.172-4.587,2.874-6.364,8.8-5.262,13.925,1.141,5.328,6.2,7.748,10.779,9.627,4.138,1.7,15.519,3.018,21.3,9.221s-4.759,23.06-10.477,17.341c-.04-.028-.89-.76-.928-.794-.017-.021-.045-.049-.066-.07a26.021,26.021,0,0,0-2.7-2.507,18.88,18.88,0,0,0-2-1.422,2.915,2.915,0,0,0-.311-.168,16.706,16.706,0,0,0-6.65-2.226,15.742,15.742,0,0,0-12.362,5.055c-.432.49.264,1,1.1.455,2.556-1.671,5.764-1.286,8.293-.8,5.13.981,8.87,7.807,13.648,7.45a7.479,7.479,0,0,0,2.9-1.134C83.207-164.245,64.91-176.444,59.746-178.257Z" transform="translate(-22197.018 -15806.301)"/><path class="a" d="M79.4-151c-.189-.106-.6.2-.6.2s-9.608,7.22-11.577,7.3-11.6-6.381-29.987-6.381a36.283,36.283,0,0,0-5.79.481,18.064,18.064,0,0,0,5.839-5.6c1.775-3.135,1.8-18.273,1.094-25.436-2.463-6.415.456-13.129,3.14-17.1a35.484,35.484,0,0,1,6.294-6.513c.119-.1.873-.788-.057-.266-3.621,2.037-10.066,3.3-12.871,1.652-5.189-3.059-8.7-3.857-11.7-3.857-3.882,0-8.376,3.812-8.278,7.807,0,.087-.017.175-.013.264a5.5,5.5,0,0,0,2.614,4.779c.956.634,1.015.309.1-.575a4.3,4.3,0,0,1-1.445-3.112s.183-5.032,5.675-3.991,6.117,3.548,9.6,4.242c.032.006.066.006.1.013a13.4,13.4,0,0,0,8.7-1.054c-5.281,4.7-7.81,11.241-7.81,15.947,0,0-.055,2.022-.045,2.154.066,1.45-.941,1.043-2.167,1.156a14.645,14.645,0,0,0-8.806,3.846c-.355.362-.3.66.055.49,3.246-1.535,10.943-2.118,11.09,3.516.226,8.825,1.437,17.809-6.154,22.779a36.491,36.491,0,0,0-5.328,1.952c-3.5,1.69-7.641,5.438-5.815,8.991.038.079.066.16.109.241a5.515,5.515,0,0,0,4.625,3.186c1.088.121,1.413-.179.453-.4a4.379,4.379,0,0,1-3.108-2.348s-1.952-3.716,3.012-5.666,20.355-4.925,35.41,1.86c6.5,3.052,8.633,5.115,8.633,5.115a1.029,1.029,0,0,0,.647.209c.568,0,.715-.209.715-.209S78.034-149.25,79.6-150.38C79.581-150.38,79.828-150.67,79.4-151Z" transform="translate(-22210.688 -15806.113)"/><path class="a" d="M29.165-192.594c.4,7.744.166,19.176-1.352,21.856a14.006,14.006,0,0,1-2.82,3.333c-.375.334-.33.709.13.5,3.6-1.626,9.306-6.694,9.306-11.658l.134-9.336a16.907,16.907,0,0,1-5.4-4.693Z" transform="translate(-22199.471 -15790.383)"/></g></svg>