<svg width="121" height="121" viewBox="0 0 121 121" fill="none" xmlns="http://www.w3.org/2000/svg">
<g filter="url(#filter0_d_2202_57474)">
<g clip-path="url(#clip0_2202_57474)">
<rect x="12.5" y="11" width="96" height="96" rx="24" fill="url(#paint0_linear_2202_57474)"/>
<rect width="96" height="96" transform="translate(12.5 11)" fill="url(#paint1_linear_2202_57474)"/>
<path fill-rule="evenodd" clip-rule="evenodd" d="M63.498 95.0256C63.5359 95.0255 63.5738 95.0252 63.6116 95.0249C77.3521 94.905 88.3937 83.669 88.2738 69.9285C88.1542 56.2241 76.9767 45.2044 63.2854 45.2657L63.3031 49.3927C74.7235 49.3414 84.0471 58.5332 84.1469 69.9645C84.2469 81.4257 75.0368 90.7979 63.5756 90.898C63.5439 90.8982 63.5121 90.8985 63.4804 90.8986L63.498 95.0256ZM63.4621 86.6202C63.4874 86.6201 63.5126 86.62 63.5379 86.6197C72.6359 86.5403 79.9469 79.1006 79.8675 70.0025C79.7883 60.9282 72.3871 53.6315 63.3214 53.6724L63.339 57.7994C70.1338 57.7685 75.6813 63.2373 75.7406 70.0385C75.8001 76.8573 70.3206 82.4333 63.5018 82.4928C63.4827 82.493 63.4636 82.4931 63.4445 82.4932L63.4621 86.6202ZM63.43 79.0983C63.5554 79.103 63.6815 79.1048 63.8083 79.1037C68.2639 79.0649 71.8444 75.4213 71.8055 70.9657C71.7666 66.5101 68.1231 62.9296 63.6675 62.9685C63.5649 62.9694 63.4628 62.9722 63.3611 62.9769L63.3788 67.1114C63.4858 67.1018 63.5941 67.0964 63.7035 67.0954C65.8799 67.0764 67.6596 68.8253 67.6786 71.0017C67.6976 73.1781 65.9487 74.9578 63.7723 74.9768C63.651 74.9779 63.5309 74.9734 63.4123 74.9637L63.43 79.0983Z" fill="url(#paint2_linear_2202_57474)"/>
<path fill-rule="evenodd" clip-rule="evenodd" d="M57.7637 23.9872C57.7252 23.9873 57.6867 23.9876 57.6481 23.9879C43.9077 24.1078 32.8661 35.3439 32.986 49.0843C33.1056 62.7894 44.2841 73.8095 57.9763 73.7472L57.9586 69.6201C46.5374 69.6725 37.2127 60.4802 37.1129 49.0483C37.0129 37.5871 46.2229 28.2149 57.6841 28.1149C57.7166 28.1146 57.7489 28.1144 57.7813 28.1142L57.7637 23.9872ZM57.7996 32.3926C57.7742 32.3927 57.7488 32.3929 57.7234 32.3931C48.6254 32.4725 41.3143 39.9123 41.3937 49.0103C41.4729 58.0848 48.8744 65.3816 57.9404 65.3404L57.9227 61.2134C51.1277 61.2446 45.58 55.7757 45.5206 48.9743C45.4611 42.1555 50.9406 36.5795 57.7594 36.52C57.7787 36.5198 57.798 36.5197 57.8172 36.5196L57.7996 32.3926ZM57.8355 40.7995C57.8222 40.7995 57.809 40.7996 57.7957 40.7997C53.3401 40.8386 49.7596 44.4821 49.7985 48.9377C49.8373 53.3827 53.4634 56.9566 57.9044 56.9352L57.8868 52.8081C55.7167 52.8197 53.9444 51.0735 53.9254 48.9017C53.9064 46.7253 55.6553 44.9456 57.8317 44.9266C57.8389 44.9266 57.846 44.9265 57.8531 44.9265L57.8355 40.7995Z" fill="url(#paint3_linear_2202_57474)"/>
</g>
<rect x="13" y="11.5" width="95" height="95" rx="23.5" stroke="white" stroke-opacity="0.1"/>
</g>
<defs>
<filter id="filter0_d_2202_57474" x="0.5" y="0.5" width="120" height="120" filterUnits="userSpaceOnUse" color-interpolation-filters="sRGB">
<feFlood flood-opacity="0" result="BackgroundImageFix"/>
<feColorMatrix in="SourceAlpha" type="matrix" values="0 0 0 0 0 0 0 0 0 0 0 0 0 0 0 0 0 0 127 0" result="hardAlpha"/>
<feOffset dy="1.5"/>
<feGaussianBlur stdDeviation="6"/>
<feComposite in2="hardAlpha" operator="out"/>
<feColorMatrix type="matrix" values="0 0 0 0 0 0 0 0 0 0 0 0 0 0 0 0 0 0 0.35 0"/>
<feBlend mode="normal" in2="BackgroundImageFix" result="effect1_dropShadow_2202_57474"/>
<feBlend mode="normal" in="SourceGraphic" in2="effect1_dropShadow_2202_57474" result="shape"/>
</filter>
<linearGradient id="paint0_linear_2202_57474" x1="60.5" y1="11" x2="60.5" y2="107" gradientUnits="userSpaceOnUse">
<stop stop-color="#1F1F1F"/>
<stop offset="1" stop-color="#080808"/>
</linearGradient>
<linearGradient id="paint1_linear_2202_57474" x1="48" y1="0" x2="48" y2="96" gradientUnits="userSpaceOnUse">
<stop stop-color="#1F1F1F"/>
<stop offset="1" stop-color="#080808"/>
</linearGradient>
<linearGradient id="paint2_linear_2202_57474" x1="84.9725" y1="94.8545" x2="63.2058" y2="43.3847" gradientUnits="userSpaceOnUse">
<stop stop-color="#EB784C"/>
<stop offset="1" stop-color="#D3044F"/>
</linearGradient>
<linearGradient id="paint3_linear_2202_57474" x1="40.8747" y1="21.8512" x2="55.2866" y2="76.2547" gradientUnits="userSpaceOnUse">
<stop stop-color="#D3044F"/>
<stop offset="1" stop-color="#EB784C"/>
</linearGradient>
<clipPath id="clip0_2202_57474">
<rect x="12.5" y="11" width="96" height="96" rx="24" fill="white"/>
</clipPath>
</defs>
</svg>
